<svg id="SvgjsSvg1188" width="993" height="535" xmlns="http://www.w3.org/2000/svg" version="1.1" xmlns:xlink="http://www.w3.org/1999/xlink" xmlns:svgjs="http://svgjs.com/svgjs"><defs id="SvgjsDefs1189"><pattern id="SvgjsPattern1196" x="0" y="0" width="707" height="360" patternUnits="userSpaceOnUse"><image id="SvgjsImage1197" xlink:href="https://cdn.processon.com/5e4d2dd9e4b07f3482d242b3?e=1582119913&amp;token=trhI0BY8QfVrIGn9nENop6JAc6l5nZuxhjQ62UfM:tRtX5v_L3KqtqOUxmQ2JS7nocwI=" width="707" height="360" preserveAspectRatio="none" crossOrigin="anonymous" x="0" y="0"></image></pattern><marker id="SvgjsMarker1200" markerWidth="16" markerHeight="16" refX="3" refY="8" viewBox="0 0 16 16" orient="auto" markerUnits="userSpaceOnUse"><circle id="SvgjsCircle1201" r="4" cx="8" cy="8" fill="#ffffff" stroke="#323232" stroke-width="1"></circle></marker><marker id="SvgjsMarker1210" markerWidth="16" markerHeight="16" refX="3" refY="8" viewBox="0 0 16 16" orient="auto" markerUnits="userSpaceOnUse"><circle id="SvgjsCircle1211" r="4" cx="8" cy="8" fill="#ffffff" stroke="#323232" stroke-width="1"></circle></marker><marker id="SvgjsMarker1214" markerWidth="16" markerHeight="16" refX="3" refY="8" viewBox="0 0 16 16" orient="auto" markerUnits="userSpaceOnUse"><circle id="SvgjsCircle1215" r="4" cx="8" cy="8" fill="#ffffff" stroke="#323232" stroke-width="1"></circle></marker><marker id="SvgjsMarker1218" markerWidth="16" markerHeight="12" refX="0" refY="6" viewBox="0 0 16 12" orient="auto" markerUnits="userSpaceOnUse"><path id="SvgjsPath1219" d="M15,1.5 L2,6 L15,10.5" fill="#323232" stroke="#323232" stroke-width="1"></path></marker><marker id="SvgjsMarker1220" markerWidth="16" markerHeight="12" refX="16" refY="6" viewBox="0 0 16 12" orient="auto" markerUnits="userSpaceOnUse"><path id="SvgjsPath1221" d="M0,2 L14,6 L0,11 L0,2" fill="#323232" stroke="#323232" stroke-width="1"></path></marker><marker id="SvgjsMarker1228" markerWidth="16" markerHeight="12" refX="0" refY="6" viewBox="0 0 16 12" orient="auto" markerUnits="userSpaceOnUse"><path id="SvgjsPath1229" d="M15,1.5 L2,6 L15,10.5" fill="#323232" stroke="#323232" stroke-width="1"></path></marker><marker id="SvgjsMarker1230" markerWidth="16" markerHeight="12" refX="16" refY="6" viewBox="0 0 16 12" orient="auto" markerUnits="userSpaceOnUse"><path id="SvgjsPath1231" d="M0,2 L14,6 L0,11 L0,2" fill="#323232" stroke="#323232" stroke-width="1"></path></marker><marker id="SvgjsMarker1252" markerWidth="16" markerHeight="16" refX="3" refY="8" viewBox="0 0 16 16" orient="auto" markerUnits="userSpaceOnUse"><circle id="SvgjsCircle1253" r="4" cx="8" cy="8" fill="#ffffff" stroke="#323232" stroke-width="1"></circle></marker><marker id="SvgjsMarker1264" markerWidth="16" markerHeight="16" refX="3" refY="8" viewBox="0 0 16 16" orient="auto" markerUnits="userSpaceOnUse"><circle id="SvgjsCircle1265" r="4" cx="8" cy="8" fill="#ffffff" stroke="#323232" stroke-width="1"></circle></marker><marker id="SvgjsMarker1284" markerWidth="14" markerHeight="12" refX="16" refY="6" viewBox="0 0 14 12" orient="auto" markerUnits="userSpaceOnUse"><path id="SvgjsPath1285" d="M1,1 L14,6 L1,11L1,1" fill="#ffffff" stroke="#00ff00" stroke-width="1"></path></marker><marker id="SvgjsMarker1288" markerWidth="14" markerHeight="12" refX="16" refY="6" viewBox="0 0 14 12" orient="auto" markerUnits="userSpaceOnUse"><path id="SvgjsPath1289" d="M1,1 L14,6 L1,11L1,1" fill="#ffffff" stroke="#ff3333" stroke-width="1"></path></marker><marker id="SvgjsMarker1304" markerWidth="16" markerHeight="16" refX="13" refY="8" viewBox="0 0 16 16" orient="auto" markerUnits="userSpaceOnUse"><circle id="SvgjsCircle1305" r="4" cx="8" cy="8" fill="#ffffff" stroke="#454545" stroke-width="1"></circle></marker><marker id="SvgjsMarker1320" markerWidth="16" markerHeight="16" refX="13" refY="8" viewBox="0 0 16 16" orient="auto" markerUnits="userSpaceOnUse"><circle id="SvgjsCircle1321" r="4" cx="8" cy="8" fill="#ffffff" stroke="#323232" stroke-width="1"></circle></marker><marker id="SvgjsMarker1324" markerWidth="16" markerHeight="16" refX="13" refY="8" viewBox="0 0 16 16" orient="auto" markerUnits="userSpaceOnUse"><circle id="SvgjsCircle1325" r="4" cx="8" cy="8" fill="#ffffff" stroke="#323232" stroke-width="1"></circle></marker><marker id="SvgjsMarker1334" markerWidth="16" markerHeight="16" refX="13" refY="8" viewBox="0 0 16 16" orient="auto" markerUnits="userSpaceOnUse"><circle id="SvgjsCircle1335" r="4" cx="8" cy="8" fill="#ffffff" stroke="#323232" stroke-width="1"></circle></marker><marker id="SvgjsMarker1344" markerWidth="16" markerHeight="16" refX="13" refY="8" viewBox="0 0 16 16" orient="auto" markerUnits="userSpaceOnUse"><circle id="SvgjsCircle1345" r="4" cx="8" cy="8" fill="#ffffff" stroke="#323232" stroke-width="1"></circle></marker><marker id="SvgjsMarker1354" markerWidth="16" markerHeight="16" refX="13" refY="8" viewBox="0 0 16 16" orient="auto" markerUnits="userSpaceOnUse"><circle id="SvgjsCircle1355" r="4" cx="8" cy="8" fill="#ffffff" stroke="#323232" stroke-width="1"></circle></marker><marker id="SvgjsMarker1364" markerWidth="16" markerHeight="16" refX="13" refY="8" viewBox="0 0 16 16" orient="auto" markerUnits="userSpaceOnUse"><circle id="SvgjsCircle1365" r="4" cx="8" cy="8" fill="#ffffff" stroke="#323232" stroke-width="1"></circle></marker><marker id="SvgjsMarker1368" markerWidth="14" markerHeight="12" refX="16" refY="6" viewBox="0 0 14 12" orient="auto" markerUnits="userSpaceOnUse"><path id="SvgjsPath1369" d="M1,1 L14,6 L1,11L1,1" fill="#ffffff" stroke="#323232" stroke-width="1"></path></marker></defs><g id="SvgjsG1190" transform="translate(60,25)"><path id="SvgjsPath1191" d="M 0 4Q 0 0 4 0L 762 0Q 766 0 766 4L 766 394Q 766 398 762 398L 4 398Q 0 398 0 394Z" stroke="#8a8a8a" stroke-width="1" fill-opacity="1" fill="#ffffff"></path><g id="SvgjsG1192"><text id="SvgjsText1193" font-family="微软雅黑" text-anchor="middle" font-size="13px" width="0" fill="#323232" font-weight="400" align="middle" anchor="middle" family="微软雅黑" size="13px" weight="400" font-style="" y="189.05" transform="rotate(0)"></text></g></g><g id="SvgjsG1194" transform="translate(64,50)"><path id="SvgjsPath1195" d="M 0 0L 707 0L 707 360L 0 360Z" stroke="none" fill="url(#SvgjsPattern1196)"></path></g><g id="SvgjsG1198"><path id="SvgjsPath1199" d="M426 182L426 285.5L426 285.5L426 389" stroke-dasharray="8,5" stroke="#323232" stroke-width="1" fill="none" marker-start="url(#SvgjsMarker1200)"></path></g><g id="SvgjsG1202" transform="translate(25,43)"><path id="SvgjsPath1203" d="M 0 0L 160 0L 160 40L 0 40Z" stroke="none" fill="none"></path><g id="SvgjsG1204"><text id="SvgjsText1205" font-family="微软雅黑" text-anchor="middle" font-size="13px" width="31" fill="#323232" font-weight="400" align="middle" anchor="middle" family="微软雅黑" size="13px" weight="400" font-style="" y="10.05" transform="rotate(0)"><tspan id="SvgjsTspan1206" dy="16" x="80"><tspan id="SvgjsTspan1207" style="text-decoration:;">Price</tspan></tspan></text></g></g><g id="SvgjsG1208"><path id="SvgjsPath1209" d="M138 99L138 243.5L138 243.5L138 388" stroke-dasharray="8,5" stroke="#323232" stroke-width="1" fill="none" marker-start="url(#SvgjsMarker1210)"></path></g><g id="SvgjsG1212"><path id="SvgjsPath1213" d="M718 146L718 267L718 267L718 388" stroke-dasharray="8,5" stroke="#323232" stroke-width="1" fill="none" marker-start="url(#SvgjsMarker1214)"></path></g><g id="SvgjsG1216"><path id="SvgjsPath1217" d="M138 308L281.5 308L281.5 308L425 308" stroke-dasharray="3,3" stroke="#323232" stroke-width="1" fill="none" marker-start="url(#SvgjsMarker1218)" marker-end="url(#SvgjsMarker1220)"></path><rect id="SvgjsRect1222" width="69" height="16" x="247" y="300" fill="#ffffff"></rect><text id="SvgjsText1223" font-family="微软雅黑" text-anchor="middle" font-size="13px" width="69" fill="#323232" font-weight="400" align="top" anchor="middle" family="微软雅黑" size="13px" weight="400" font-style="" y="298.05" transform="rotate(0)"><tspan id="SvgjsTspan1224" dy="16" x="281.5"><tspan id="SvgjsTspan1225" style="text-decoration:;">Last Round</tspan></tspan></text></g><g id="SvgjsG1226"><path id="SvgjsPath1227" d="M428 308L571.5 308L571.5 308L715 308" stroke-dasharray="3,3" stroke="#323232" stroke-width="1" fill="none" marker-start="url(#SvgjsMarker1228)" marker-end="url(#SvgjsMarker1230)"></path><rect id="SvgjsRect1232" width="68" height="16" x="537.5" y="300" fill="#ffffff"></rect><text id="SvgjsText1233" font-family="微软雅黑" text-anchor="middle" font-size="13px" width="68" fill="#323232" font-weight="400" align="top" anchor="middle" family="微软雅黑" size="13px" weight="400" font-style="" y="298.05" transform="rotate(0)"><tspan id="SvgjsTspan1234" dy="16" x="571.5"><tspan id="SvgjsTspan1235" style="text-decoration:;">This Round</tspan></tspan></text></g><g id="SvgjsG1236" transform="translate(808,470)"><path id="SvgjsPath1237" d="M 0 0L 160 0L 160 40L 0 40Z" stroke="none" fill="none"></path><g id="SvgjsG1238"><text id="SvgjsText1239" font-family="微软雅黑" text-anchor="middle" font-size="13px" width="0" fill="#323232" font-weight="400" align="middle" anchor="middle" family="微软雅黑" size="13px" weight="400" font-style="" y="10.05" transform="rotate(0)"></text></g></g><g id="SvgjsG1240" transform="translate(261,75)"><path id="SvgjsPath1241" d="M 0 4Q 0 0 4 0L 213 0Q 217 0 217 4L 217 39Q 217 43 213 43L 4 43Q 0 43 0 39Z" stroke="#323232" stroke-width="1" fill-opacity="1" fill="#ffffff"></path><g id="SvgjsG1242"><text id="SvgjsText1243" font-family="微软雅黑" text-anchor="middle" font-size="13px" width="196" fill="#323232" font-weight="400" align="middle" anchor="middle" family="微软雅黑" size="13px" weight="400" font-style="" y="3.55" transform="rotate(0)"><tspan id="SvgjsTspan1244" dy="16" x="108.5"><tspan id="SvgjsTspan1245" style="text-decoration:;">Here is the last round End price, </tspan></tspan><tspan id="SvgjsTspan1246" dy="16" x="108.5"><tspan id="SvgjsTspan1247" style="text-decoration:;">And a start price of this round.</tspan></tspan></text></g></g><g id="SvgjsG1248"><path id="SvgjsPath1249" d="M369.5 118L426 184" stroke="#323232" stroke-width="1" fill="none"></path></g><g id="SvgjsG1250"><path id="SvgjsPath1251" d="M506 238L506 313.5L506 313.5L506 389" stroke-dasharray="8,5" stroke="#323232" stroke-width="1" fill="none" marker-start="url(#SvgjsMarker1252)"></path></g><g id="SvgjsG1254" transform="translate(521,143)"><path id="SvgjsPath1255" d="M 0 4Q 0 0 4 0L 128 0Q 132 0 132 4L 132 29Q 132 33 128 33L 4 33Q 0 33 0 29Z" stroke="#323232" stroke-width="1" fill-opacity="1" fill="#ffffff"></path><g id="SvgjsG1256"><text id="SvgjsText1257" font-family="微软雅黑" text-anchor="middle" font-size="13px" width="61" fill="#323232" font-weight="400" align="middle" anchor="middle" family="微软雅黑" size="13px" weight="400" font-style="" y="6.55" transform="rotate(0)"><tspan id="SvgjsTspan1258" dy="16" x="66"><tspan id="SvgjsTspan1259" style="text-decoration:;">Now price</tspan></tspan></text></g></g><g id="SvgjsG1260"><path id="SvgjsPath1261" d="M587 176L510 241" stroke="#323232" stroke-width="1" fill="none"></path></g><g id="SvgjsG1262"><path id="SvgjsPath1263" d="M718 218L718 302.5L718 302.5L718 387" stroke-dasharray="8,5" stroke="#323232" stroke-width="1" fill="none" marker-start="url(#SvgjsMarker1264)"></path></g><g id="SvgjsG1266" transform="translate(579,47)"><path id="SvgjsPath1267" d="M 0 4Q 0 0 4 0L 229 0Q 233 0 233 4L 233 53Q 233 57 229 57L 4 57Q 0 57 0 53Z" stroke="#323232" stroke-width="1" fill-opacity="1" fill="#ffffff"></path><g id="SvgjsG1268"><text id="SvgjsText1269" font-family="微软雅黑" text-anchor="middle" font-size="13px" width="203" fill="#323232" font-weight="400" align="middle" anchor="middle" family="微软雅黑" size="13px" weight="400" font-style="" y="2.55" transform="rotate(0)"><tspan id="SvgjsTspan1270" dy="16" x="116.5"><tspan id="SvgjsTspan1271" style="text-decoration:;">Place your predict whether the </tspan></tspan><tspan id="SvgjsTspan1272" dy="16" x="116.5"><tspan id="SvgjsTspan1273" style="text-decoration:;">price will go up or down compare </tspan></tspan><tspan id="SvgjsTspan1274" dy="16" x="116.5"><tspan id="SvgjsTspan1275" style="text-decoration:;">with end price of last round</tspan></tspan></text></g></g><g id="SvgjsG1276" transform="translate(664.5,370)"><path id="SvgjsPath1277" d="M 0 0L 160 0L 160 40L 0 40Z" stroke="none" fill="none"></path><g id="SvgjsG1278"><text id="SvgjsText1279" font-family="微软雅黑" text-anchor="middle" font-size="13px" width="30" fill="#323232" font-weight="400" align="middle" anchor="middle" family="微软雅黑" size="13px" weight="400" font-style="" y="10.05" transform="rotate(0)"><tspan id="SvgjsTspan1280" dy="16" x="80"><tspan id="SvgjsTspan1281" style="text-decoration:;">Time</tspan></tspan></text></g></g><g id="SvgjsG1282"><path id="SvgjsPath1283" d="M506 243C 608 229 651 209 715 152" stroke-dasharray="8,5" stroke="#00ff00" stroke-width="1" fill="none" marker-end="url(#SvgjsMarker1284)"></path></g><g id="SvgjsG1286"><path id="SvgjsPath1287" d="M507 243C 603 278 657 257 717 222" stroke-dasharray="8,5" stroke="#ff3333" stroke-width="1" fill="none" marker-end="url(#SvgjsMarker1288)"></path></g><g id="SvgjsG1290" transform="translate(538,184)"><path id="SvgjsPath1291" d="M 0 0L 160 0L 160 40L 0 40Z" stroke="none" fill="none"></path><g id="SvgjsG1292"><text id="SvgjsText1293" font-family="微软雅黑" text-anchor="middle" font-size="13px" width="7" fill="#323232" font-weight="400" align="middle" anchor="middle" family="微软雅黑" size="13px" weight="400" font-style="" y="10.05" transform="rotate(0)"><tspan id="SvgjsTspan1294" dy="16" x="80"><tspan id="SvgjsTspan1295" style="text-decoration:;">?</tspan></tspan></text></g></g><g id="SvgjsG1296" transform="translate(547,230)"><path id="SvgjsPath1297" d="M 0 0L 160 0L 160 40L 0 40Z" stroke="none" fill="none"></path><g id="SvgjsG1298"><text id="SvgjsText1299" font-family="微软雅黑" text-anchor="middle" font-size="13px" width="7" fill="#323232" font-weight="400" align="middle" anchor="middle" family="微软雅黑" size="13px" weight="400" font-style="" y="10.05" transform="rotate(0)"><tspan id="SvgjsTspan1300" dy="16" x="80"><tspan id="SvgjsTspan1301" style="text-decoration:;">?</tspan></tspan></text></g></g><g id="SvgjsG1302"><path id="SvgjsPath1303" d="M430 185C 546.8 185 605.2 185 722 185" stroke-dasharray="3,3" stroke="#454545" stroke-width="1" fill="none" marker-end="url(#SvgjsMarker1304)"></path></g><g id="SvgjsG1306" transform="translate(663,131)"><path id="SvgjsPath1307" d="M 0 0L 160 0L 160 40L 0 40Z" stroke="none" fill="none"></path><g id="SvgjsG1308"><text id="SvgjsText1309" font-family="微软雅黑" text-anchor="middle" font-size="13px" width="24" fill="#323232" font-weight="400" align="middle" anchor="middle" family="微软雅黑" size="13px" weight="400" font-style="" y="10.05" transform="rotate(0)"><tspan id="SvgjsTspan1310" dy="16" x="80"><tspan id="SvgjsTspan1311" style="text-decoration:;">Up?</tspan></tspan></text></g></g><g id="SvgjsG1312" transform="translate(672,204)"><path id="SvgjsPath1313" d="M 0 0L 160 0L 160 40L 0 40Z" stroke="none" fill="none"></path><g id="SvgjsG1314"><text id="SvgjsText1315" font-family="微软雅黑" text-anchor="middle" font-size="13px" width="41" fill="#323232" font-weight="400" align="middle" anchor="middle" family="微软雅黑" size="13px" weight="400" font-style="" y="10.05" transform="rotate(0)"><tspan id="SvgjsTspan1316" dy="16" x="80"><tspan id="SvgjsTspan1317" style="text-decoration:;">Down?</tspan></tspan></text></g></g><g id="SvgjsG1318"><path id="SvgjsPath1319" d="M386 391L386 371L386 371L386 351" stroke-dasharray="8,5" stroke="#323232" stroke-width="1" fill="none" marker-end="url(#SvgjsMarker1320)"></path></g><g id="SvgjsG1322"><path id="SvgjsPath1323" d="M679 390L679 370L679 370L679 350" stroke-dasharray="8,5" stroke="#323232" stroke-width="1" fill="none" marker-end="url(#SvgjsMarker1324)"></path></g><g id="SvgjsG1326" transform="translate(140,53)"><path id="SvgjsPath1327" d="M 0 4Q 0 0 4 0L 73 0Q 77 0 77 4L 77 26Q 77 30 73 30L 4 30Q 0 30 0 26Z" stroke="#323232" stroke-width="1" fill-opacity="1" fill="#99ff99"></path><g id="SvgjsG1328"><text id="SvgjsText1329" font-family="微软雅黑" text-anchor="middle" font-size="13px" width="57" fill="#323232" font-weight="400" align="middle" anchor="middle" family="微软雅黑" size="13px" weight="400" font-style="" y="5.05" transform="rotate(0)"><tspan id="SvgjsTspan1330" dy="16" x="38.5"><tspan id="SvgjsTspan1331" style="text-decoration:;">bet begin</tspan></tspan></text></g></g><g id="SvgjsG1332"><path id="SvgjsPath1333" d="M178.5 83L136 104" stroke="#323232" stroke-width="1" fill="none" marker-end="url(#SvgjsMarker1334)"></path></g><g id="SvgjsG1336" transform="translate(285,340)"><path id="SvgjsPath1337" d="M 0 4Q 0 0 4 0L 73 0Q 77 0 77 4L 77 26Q 77 30 73 30L 4 30Q 0 30 0 26Z" stroke="#323232" stroke-width="1" fill-opacity="1" fill="#ff9999"></path><g id="SvgjsG1338"><text id="SvgjsText1339" font-family="微软雅黑" text-anchor="middle" font-size="13px" width="46" fill="#323232" font-weight="400" align="middle" anchor="middle" family="微软雅黑" size="13px" weight="400" font-style="" y="5.05" transform="rotate(0)"><tspan id="SvgjsTspan1340" dy="16" x="38.5"><tspan id="SvgjsTspan1341" style="text-decoration:;">bet end</tspan></tspan></text></g></g><g id="SvgjsG1342"><path id="SvgjsPath1343" d="M361 355L389 355" stroke="#323232" stroke-width="1" fill="none" marker-end="url(#SvgjsMarker1344)"></path></g><g id="SvgjsG1346" transform="translate(426,125)"><path id="SvgjsPath1347" d="M 0 4Q 0 0 4 0L 73 0Q 77 0 77 4L 77 26Q 77 30 73 30L 4 30Q 0 30 0 26Z" stroke="#323232" stroke-width="1" fill-opacity="1" fill="#99ff99"></path><g id="SvgjsG1348"><text id="SvgjsText1349" font-family="微软雅黑" text-anchor="middle" font-size="13px" width="57" fill="#323232" font-weight="400" align="middle" anchor="middle" family="微软雅黑" size="13px" weight="400" font-style="" y="5.05" transform="rotate(0)"><tspan id="SvgjsTspan1350" dy="16" x="38.5"><tspan id="SvgjsTspan1351" style="text-decoration:;">bet begin</tspan></tspan></text></g></g><g id="SvgjsG1352"><path id="SvgjsPath1353" d="M464.5 155L424 188" stroke="#323232" stroke-width="1" fill="none" marker-end="url(#SvgjsMarker1354)"></path></g><g id="SvgjsG1356" transform="translate(576,340)"><path id="SvgjsPath1357" d="M 0 4Q 0 0 4 0L 73 0Q 77 0 77 4L 77 26Q 77 30 73 30L 4 30Q 0 30 0 26Z" stroke="#323232" stroke-width="1" fill-opacity="1" fill="#ff9999"></path><g id="SvgjsG1358"><text id="SvgjsText1359" font-family="微软雅黑" text-anchor="middle" font-size="13px" width="46" fill="#323232" font-weight="400" align="middle" anchor="middle" family="微软雅黑" size="13px" weight="400" font-style="" y="5.05" transform="rotate(0)"><tspan id="SvgjsTspan1360" dy="16" x="38.5"><tspan id="SvgjsTspan1361" style="text-decoration:;">bet end</tspan></tspan></text></g></g><g id="SvgjsG1362"><path id="SvgjsPath1363" d="M655 354L683 354" stroke="#323232" stroke-width="1" fill="none" marker-end="url(#SvgjsMarker1364)"></path></g><g id="SvgjsG1366"><path id="SvgjsPath1367" d="M700 104L712 145" stroke="#323232" stroke-width="1" fill="none" marker-end="url(#SvgjsMarker1368)"></path></g></svg>